<?xml version="1.0" encoding="UTF-8" standalone="no"?>
<svg
   enable-background="new 0 0 512 512"
   height="512px"
   id="Layer_1"
   version="1.1"
   viewBox="0 0 512 512"
   width="512px"
   xml:space="preserve"
   sodipodi:docname="110801_symbol_sun_sun.svg"
   inkscape:version="1.1.2 (b8e25be833, 2022-02-05)"
   xmlns:inkscape="http://www.inkscape.org/namespaces/inkscape"
   xmlns:sodipodi="http://sodipodi.sourceforge.net/DTD/sodipodi-0.dtd"
   xmlns="http://www.w3.org/2000/svg"
   xmlns:svg="http://www.w3.org/2000/svg"><defs
     id="defs11" /><sodipodi:namedview
     id="namedview9"
     pagecolor="#ffffff"
     bordercolor="#666666"
     borderopacity="1.0"
     inkscape:pageshadow="2"
     inkscape:pageopacity="0.0"
     inkscape:pagecheckerboard="0"
     showgrid="false"
     inkscape:zoom="0.74991989"
     inkscape:cx="533.39031"
     inkscape:cy="216.02307"
     inkscape:window-width="1366"
     inkscape:window-height="705"
     inkscape:window-x="-8"
     inkscape:window-y="-8"
     inkscape:window-maximized="1"
     inkscape:current-layer="Layer_1" /><g
     id="g6"
     transform="matrix(1.2307692,0,0,1.2307692,-59.076915,-59.076915)"><g
       id="g4"><path
         d="m 256,144 c -61.75,0 -112,50.25 -112,112 0,61.75 50.25,112 112,112 61.75,0 112,-50.25 112,-112 0,-61.75 -50.25,-112 -112,-112 z m 0,192 c -44.188,0 -80,-35.812 -80,-80 0,-44.188 35.812,-80 80,-80 44.188,0 80,35.812 80,80 0,44.188 -35.812,80 -80,80 z m 0,-224 c 8.833,0 16,-7.167 16,-16 V 64 c 0,-8.833 -7.167,-16 -16,-16 -8.833,0 -16,7.167 -16,16 v 32 c 0,8.833 7.167,16 16,16 z m 0,288 c -8.833,0 -16,7.167 -16,16 v 32 c 0,8.833 7.167,16 16,16 8.833,0 16,-7.167 16,-16 v -32 c 0,-8.833 -7.167,-16 -16,-16 z m 124.438,-245.833 22.625,-22.625 c 6.25,-6.25 6.25,-16.375 0,-22.625 -6.25,-6.25 -16.375,-6.25 -22.625,0 l -22.625,22.625 c -6.25,6.25 -6.25,16.375 0,22.625 6.25,6.25 16.375,6.25 22.625,0 z m -248.876,203.667 -22.625,22.625 c -6.25,6.249 -6.25,16.374 0,22.624 6.25,6.25 16.375,6.25 22.625,0 l 22.625,-22.624 c 6.25,-6.271 6.25,-16.376 0,-22.625 -6.249,-6.251 -16.375,-6.272 -22.625,0 z M 112,256 c 0,-8.833 -7.167,-16 -16,-16 H 64 c -8.833,0 -16,7.167 -16,16 0,8.833 7.167,16 16,16 h 32 c 8.833,0 16,-7.167 16,-16 z m 336,-16 h -32 c -8.833,0 -16,7.167 -16,16 0,8.833 7.167,16 16,16 h 32 c 8.833,0 16,-7.167 16,-16 0,-8.833 -7.167,-16 -16,-16 z M 131.541,154.167 c 6.251,6.25 16.376,6.25 22.625,0 6.251,-6.25 6.251,-16.375 0,-22.625 l -22.625,-22.625 c -6.25,-6.25 -16.374,-6.25 -22.625,0 -6.25,6.25 -6.25,16.375 0,22.625 z m 248.918,203.645 c -6.271,-6.25 -16.376,-6.25 -22.625,0 -6.251,6.25 -6.271,16.375 0,22.625 l 22.625,22.625 c 6.249,6.25 16.374,6.25 22.624,0 6.25,-6.25 6.25,-16.375 0,-22.625 z"
         fill="#ffffff"
         id="path2" /></g></g></svg>
